<svg version="1.1" xmlns="http://www.w3.org/2000/svg" viewBox="0 0 141.9682739981714 122.70489431327091" width="283.9365479963428" height="245.40978862654183">
  <!-- svg-source:excalidraw -->
  
  <defs>
    <style>
      @font-face {
        font-family: "Virgil";
        src: url("https://excalidraw.com/Virgil.woff2");
      }
      @font-face {
        font-family: "Cascadia";
        src: url("https://excalidraw.com/Cascadia.woff2");
      }
    </style>
  </defs>
  <rect x="0" y="0" width="141.9682739981714" height="122.70489431327091" fill="#ffffff"></rect><g stroke-linecap="round"><g transform="translate(97.42761149745877 24.291622325441793) rotate(0 11.471457708408877 -0.3489218407215162)"><path d="M0.43 0.7 C1 -0.85, 1.87 -7.35, 4.56 -9.21 C7.25 -11.07, 13.38 -12.58, 16.58 -10.44 C19.77 -8.3, 23.58 -0.18, 23.74 3.63 C23.9 7.43, 18.56 10.99, 17.54 12.41 M-0.8 0.02 C0.05 -1.85, 3.52 -8.69, 6.83 -10.76 C10.14 -12.82, 16.26 -14.43, 19.04 -12.36 C21.83 -10.29, 24.05 -2.5, 23.54 1.66 C23.02 5.82, 16.72 10.49, 15.96 12.62" stroke="#000000" stroke-width="1" fill="none"></path></g></g><g stroke-linecap="round" transform="translate(86.38176503363013 50.75067599233115) rotate(0 6.058321866122185 5.3322740034623735)"><path d="M3.94 0.08 C5 -0.17, 7.27 0.42, 8.52 1.02 C9.78 1.62, 10.85 2.86, 11.49 3.67 C12.13 4.47, 12.56 4.85, 12.36 5.86 C12.17 6.87, 11.41 8.87, 10.3 9.71 C9.19 10.55, 7.22 10.88, 5.71 10.89 C4.2 10.9, 2.12 10.55, 1.24 9.77 C0.37 8.99, 0.59 7.55, 0.46 6.2 C0.34 4.85, -0.42 2.55, 0.49 1.69 C1.4 0.83, 5.01 1.21, 5.91 1.02 C6.8 0.82, 6.08 0.76, 5.85 0.53 M6.37 -0.53 C7.47 -0.35, 10.03 0.62, 11.21 1.64 C12.38 2.65, 13.64 4.28, 13.39 5.58 C13.15 6.88, 10.92 8.62, 9.75 9.43 C8.57 10.24, 7.3 10.17, 6.34 10.43 C5.38 10.69, 4.84 11.67, 4 10.98 C3.16 10.29, 1.9 7.37, 1.29 6.29 C0.67 5.22, -0.12 5.33, 0.33 4.54 C0.79 3.74, 2.79 2.25, 4 1.52 C5.21 0.78, 7.34 0.15, 7.57 0.11 C7.8 0.08, 5.72 1.22, 5.38 1.31" stroke="none" stroke-width="0" fill="#000"></path><path d="M5.45 0.62 C6.83 0.45, 9.05 0.55, 10.11 1.22 C11.17 1.88, 11.71 3.62, 11.81 4.58 C11.92 5.54, 11.24 6.21, 10.74 6.98 C10.25 7.75, 9.76 8.73, 8.82 9.22 C7.89 9.7, 6.48 10.02, 5.12 9.89 C3.77 9.77, 1.68 9.48, 0.7 8.47 C-0.29 7.46, -0.95 4.86, -0.8 3.84 C-0.64 2.82, 0.27 3.04, 1.63 2.33 C3 1.62, 6.22 -0.28, 7.41 -0.42 C8.6 -0.57, 8.8 1.19, 8.76 1.46 M4.24 -0.47 C5.44 -0.83, 8 0.26, 9.44 1.02 C10.88 1.78, 12.45 3, 12.88 4.08 C13.31 5.15, 12.92 6.67, 12.04 7.45 C11.17 8.24, 8.93 8.26, 7.63 8.8 C6.33 9.34, 5.27 10.75, 4.24 10.69 C3.21 10.63, 2.22 9.49, 1.47 8.45 C0.73 7.4, -0.05 5.7, -0.23 4.43 C-0.4 3.17, -0.63 1.39, 0.43 0.87 C1.49 0.35, 5.19 1.57, 6.13 1.29 C7.07 1.02, 6.06 -0.88, 6.06 -0.77" stroke="#000000" stroke-width="1" fill="none"></path></g><g stroke-linecap="round"><g transform="translate(22.585334132930825 35.777467147236464) rotate(0 4.621272223258927 -12.745421330991086)"><path d="M0.26 0.29 C-0.9 -1.63, -5.97 -7.83, -6.33 -11.83 C-6.69 -15.82, -4.77 -22.08, -1.87 -23.66 C1.02 -25.25, 7.93 -23.53, 11.03 -21.33 C14.13 -19.14, 15.6 -12.01, 16.74 -10.49 M-1.06 -0.61 C-2.46 -2.89, -7.14 -9.66, -7.46 -13.83 C-7.79 -18, -6.05 -24.59, -3.01 -25.61 C0.03 -26.64, 7.75 -22.63, 10.79 -19.98 C13.83 -17.33, 14.34 -11.37, 15.25 -9.71" stroke="#000000" stroke-width="1" fill="none"></path></g></g><g stroke-linecap="round"><g transform="translate(28.796595898430496 30.62420137679088) rotate(0 2.8950260105838197 -3.4607107900498093)"><path d="M0 -1.06 C-0.11 -2.13, -1.82 -5.4, -0.54 -6.09 C0.74 -6.77, 6.45 -5.59, 7.68 -5.15 M-1.46 0.99 C-1.67 -0.44, -2.52 -6.93, -1.06 -7.79 C0.39 -8.66, 5.93 -4.59, 7.27 -4.21" stroke="#000000" stroke-width="1" fill="none"></path></g></g><g stroke-linecap="round"><g transform="translate(101.39170867783582 26.296980714355996) rotate(0 3.879501215364826 -0.7610534671996092)"><path d="M-1.07 0.66 C-0.09 -0.38, 4.6 -6.75, 6.15 -5.85 C7.7 -4.95, 7.93 4.18, 8.22 6.05 M0.57 -0.04 C1.89 -1.45, 7.13 -8.3, 8.37 -7.57 C9.6 -6.84, 7.97 2.55, 7.99 4.33" stroke="#000000" stroke-width="1" fill="none"></path></g></g><g stroke-linecap="round" transform="translate(37.81598624353194 48.9383345912599) rotate(0 6.058321866122185 5.3322740034623735)"><path d="M6.16 -0.31 C7.32 -0.49, 9.15 -0.13, 9.99 0.62 C10.83 1.37, 10.79 3.04, 11.19 4.16 C11.58 5.29, 12.78 6.33, 12.36 7.36 C11.94 8.4, 10.02 9.81, 8.69 10.39 C7.35 10.97, 5.73 11.28, 4.35 10.85 C2.97 10.43, 1.07 8.73, 0.41 7.86 C-0.25 6.98, 0.12 6.5, 0.4 5.59 C0.68 4.68, 0.94 3.41, 2.08 2.39 C3.23 1.38, 6.32 -0.32, 7.28 -0.5 C8.24 -0.69, 7.94 0.99, 7.84 1.28 M7.73 0.97 C8.66 1.52, 10.35 2.85, 11.18 3.83 C12.01 4.81, 12.97 5.75, 12.69 6.84 C12.41 7.94, 10.85 9.94, 9.5 10.4 C8.15 10.86, 5.77 10.06, 4.58 9.62 C3.4 9.18, 2.94 8.49, 2.37 7.74 C1.79 6.99, 1.46 5.97, 1.15 5.12 C0.83 4.27, 0.17 3.7, 0.48 2.65 C0.8 1.61, 1.79 -1.01, 3.06 -1.17 C4.33 -1.33, 7.23 1.54, 8.12 1.69 C9 1.83, 8.43 -0.35, 8.38 -0.31" stroke="none" stroke-width="0" fill="#000"></path><path d="M4.18 1.1 C5.42 0.57, 7.86 -0.58, 9.09 -0.19 C10.32 0.2, 10.96 2.15, 11.55 3.43 C12.14 4.72, 12.9 6.33, 12.62 7.51 C12.34 8.69, 10.98 10.07, 9.86 10.52 C8.74 10.97, 7.14 10.34, 5.91 10.22 C4.67 10.09, 3.46 10.55, 2.46 9.75 C1.45 8.95, 0.14 6.74, -0.12 5.4 C-0.38 4.06, -0.1 2.59, 0.9 1.71 C1.91 0.83, 5.05 0.38, 5.9 0.13 C6.74 -0.13, 6.12 0.18, 5.98 0.17 M8.14 0.97 C9.17 1.22, 11.29 0.77, 11.68 1.94 C12.07 3.12, 11.02 6.91, 10.46 8.03 C9.9 9.14, 9.1 7.97, 8.34 8.63 C7.57 9.29, 6.92 12.17, 5.86 11.97 C4.8 11.78, 2.72 8.52, 1.97 7.45 C1.22 6.39, 1.53 6.43, 1.36 5.57 C1.19 4.72, 0.55 3.22, 0.95 2.32 C1.34 1.42, 2.33 0.21, 3.72 0.17 C5.12 0.13, 8.58 2.07, 9.32 2.09 C10.06 2.1, 8.45 0.26, 8.17 0.25" stroke="#000000" stroke-width="1" fill="none"></path></g><g stroke-linecap="round"><g transform="translate(24.76615494491182 36.10425113817011) rotate(0 46.21798205417389 36.76928723318779)"><path d="M0.22 -0.42 C-2.25 4.28, -16.85 16.23, -13.61 27.42 C-10.38 38.6, 5.51 59.5, 19.64 66.7 C33.78 73.9, 56.92 77.43, 71.18 70.63 C85.44 63.82, 101.79 37.31, 105.22 25.86 C108.65 14.4, 94.17 6.13, 91.75 1.88 M-1.13 -1.68 C-3.8 3.18, -17.6 16.76, -14.25 28.34 C-10.89 39.92, 4.68 60.6, 18.99 67.79 C33.3 74.98, 56.95 78.35, 71.6 71.48 C86.24 64.61, 103.78 38.24, 106.85 26.56 C109.93 14.87, 92.64 5.39, 90.06 1.36" stroke="#000000" stroke-width="1" fill="none"></path></g></g><g stroke-linecap="round"><g transform="translate(39.57683914901327 26.005353839992992) rotate(0 28.744419626379397 -2.829491191821461)"><path d="M0.51 1.06 C4.89 0.34, 15.89 -4.5, 25.12 -5.07 C34.35 -5.63, 50.48 -2.92, 55.89 -2.32 M-0.68 0.57 C3.74 -0.41, 14.97 -6.36, 24.78 -6.72 C34.58 -7.08, 52.61 -2.62, 58.17 -1.59" stroke="#000000" stroke-width="1" fill="none"></path></g></g><g stroke-linecap="round"><g transform="translate(64.01776602799453 109.69823748404592) rotate(0 4.766429728036485 -30.833797833509777)" fill-rule="evenodd"><path d="M1.73 -1.29 L-15.36 -4.16 L-26.5 -8.41 L-30.4 -10.5 L-33.18 -16.84 L-31.56 -29.86 L-23.36 -38.79 L-10.14 -41.1 L-2.32 -59.61 L2.94 -64.95 L6.24 -63.45 L7.71 -63.89 L11.72 -56.44 L17.3 -40.05 L22.43 -36.35 L29.78 -36.56 L31.45 -34.29 L39.72 -23.4 L44.95 -7.22 L39.55 -7 L38.36 -4.35 L20.45 1.55 L0.62 2.1 L-5.09 -1.09" stroke="none" stroke-width="0" fill="#e8f0f3" fill-rule="evenodd"></path><path d="M-0.6 -0.91 C-3.25 -1.52, -10.32 -1.07, -15.86 -3.86 C-21.4 -6.65, -32.61 -11.89, -33.85 -17.65 C-35.09 -23.4, -27.5 -34.2, -23.29 -38.38 C-19.07 -42.55, -12.25 -38.93, -8.55 -42.68 C-4.84 -46.44, -3.94 -57.77, -1.05 -60.9 C1.84 -64.04, 5.86 -65.27, 8.77 -61.48 C11.68 -57.68, 12.16 -42.54, 16.4 -38.11 C20.63 -33.67, 29.59 -39.89, 34.18 -34.85 C38.78 -29.81, 44.79 -13.53, 43.98 -7.89 C43.18 -2.25, 36.64 -2.36, 29.37 -1 C22.09 0.37, 6.31 0.32, 0.33 0.29 C-5.65 0.26, -5.36 -0.96, -6.52 -1.17 M1.28 1.23 C-1.01 0.84, -7.75 0.65, -13.68 -2.38 C-19.62 -5.41, -32.75 -11.15, -34.32 -16.96 C-35.89 -22.77, -27.18 -32.95, -23.09 -37.24 C-18.99 -41.54, -13.14 -38.64, -9.76 -42.71 C-6.38 -46.78, -5.93 -58.38, -2.8 -61.65 C0.34 -64.91, 5.45 -66.17, 9.03 -62.28 C12.61 -58.39, 14.7 -42.77, 18.69 -38.33 C22.68 -33.89, 29.14 -40.74, 32.96 -35.65 C36.79 -30.55, 42.68 -13.68, 41.63 -7.77 C40.58 -1.87, 33.24 -2.01, 26.65 -0.22 C20.06 1.58, 7.56 3.28, 2.07 2.97 C-3.42 2.67, -4.71 -1.35, -6.28 -2.03" stroke="#000000" stroke-width="1" fill="none"></path></g></g><g stroke-linecap="round"><g transform="translate(54.968726591885456 72.76173716592324) rotate(0 11.061624209286038 4.772876537046855)" fill-rule="evenodd"><path d="M-1.97 -1.21 L11.23 -5.14 L18.34 0.11 L24.63 6.46 L18.2 10.43 L10.77 13.79 L6.27 12.88 L-2.24 3.84" stroke="none" stroke-width="0" fill="#868e96" fill-rule="evenodd"></path><path d="M-0.1 -0.59 C1.45 -0.92, 5.27 -3.81, 9.41 -2.74 C13.55 -1.68, 24.89 3.2, 24.76 5.83 C24.63 8.46, 12.96 13.8, 8.62 13.02 C4.28 12.24, 0.4 3.02, -1.28 1.16 M-1.62 1.72 C0.31 1.14, 7.37 -4.69, 11.64 -4.32 C15.9 -3.96, 24.49 0.87, 23.95 3.9 C23.41 6.93, 12.81 14.33, 8.38 13.87 C3.95 13.4, -1.25 3.3, -2.64 1.11" stroke="#000000" stroke-width="1" fill="none"></path></g></g><g stroke-linecap="round" transform="translate(56.98433772025908 78.743483215284) rotate(0 1.3112976074218636 0.08964233398438637)"><path d="M0.88 -0.77 C1.29 -0.94, 2.58 -0.87, 2.85 -0.79 C3.13 -0.71, 2.73 -0.38, 2.55 -0.29 C2.37 -0.21, 2.13 -0.53, 1.79 -0.3 C1.44 -0.06, 0.6 1.01, 0.47 1.12 C0.33 1.23, 0.97 0.58, 0.99 0.36 C1 0.14, 0.8 -0.03, 0.54 -0.21 C0.29 -0.4, -0.71 -0.71, -0.53 -0.75 C-0.35 -0.8, 1.36 -0.58, 1.61 -0.47 C1.85 -0.37, 1.01 -0.11, 0.94 -0.12 C0.88 -0.14, 1.14 -0.73, 1.22 -0.57 M1.12 0.49 C1.35 0.53, 1.15 -0.43, 1.38 -0.68 C1.6 -0.93, 2.4 -1.19, 2.48 -1.03 C2.56 -0.87, 2.12 0.23, 1.85 0.27 C1.59 0.32, 1.01 -0.68, 0.88 -0.75 C0.76 -0.82, 1.2 -0.22, 1.11 -0.12 C1.02 -0.03, 0.41 -0.23, 0.34 -0.16 C0.26 -0.08, 0.45 0.18, 0.66 0.31 C0.86 0.44, 1.31 0.83, 1.58 0.63 C1.85 0.43, 2.52 -0.74, 2.28 -0.89 C2.03 -1.05, 0.17 -0.59, 0.13 -0.31" stroke="none" stroke-width="0" fill="#000"></path><path d="M1.21 -0.39 C1.41 -0.53, 2.01 -0.04, 2.39 0 C2.76 0.03, 3.41 -0.23, 3.48 -0.15 C3.55 -0.08, 2.92 0.42, 2.81 0.45 C2.69 0.48, 3.18 0.23, 2.77 0.05 C2.36 -0.14, 0.9 -0.82, 0.34 -0.66 C-0.22 -0.5, -0.39 1.02, -0.59 0.99 C-0.79 0.96, -1.01 -0.84, -0.87 -0.86 C-0.73 -0.87, -0.18 0.79, 0.24 0.9 C0.66 1.01, 1.43 0.07, 1.66 -0.18 C1.89 -0.43, 1.65 -0.72, 1.63 -0.59 M0.29 0.11 C0.77 0.06, 1.47 1.07, 1.94 0.86 C2.41 0.65, 3.18 -0.83, 3.13 -1.15 C3.07 -1.47, 1.78 -1.45, 1.6 -1.06 C1.42 -0.67, 2.25 0.75, 2.04 1.19 C1.84 1.63, 0.57 1.98, 0.37 1.59 C0.16 1.21, 0.86 -1.07, 0.81 -1.13 C0.76 -1.2, -0.03 1.01, 0.04 1.19 C0.1 1.36, 1.02 0.06, 1.19 -0.06 C1.36 -0.19, 1.17 0.65, 1.05 0.45 C0.93 0.26, 0.53 -1.21, 0.46 -1.24" stroke="#000000" stroke-width="1" fill="none"></path></g><g stroke-linecap="round" transform="translate(71.83969660697778 80.43648858637776) rotate(0 0.7880340576172102 1.4896362304687614)"><path d="M0.7 0.41 C0.92 0.52, 1.32 0.88, 1.53 1.14 C1.74 1.4, 2.1 1.9, 1.99 1.97 C1.87 2.03, 1.03 1.28, 0.82 1.51 C0.61 1.73, 0.73 2.97, 0.75 3.33 C0.77 3.69, 1.17 3.71, 0.94 3.64 C0.71 3.58, -0.34 3.31, -0.62 2.94 C-0.9 2.57, -0.74 1.85, -0.73 1.43 C-0.71 1.02, -0.82 0.74, -0.53 0.44 C-0.25 0.14, 0.74 -0.28, 0.99 -0.36 C1.25 -0.45, 0.98 -0.11, 1 -0.09 M1.54 0.62 C1.58 0.44, 1.15 -0.87, 1.21 -0.97 C1.27 -1.07, 1.92 -0.55, 1.9 0.02 C1.88 0.59, 1.4 1.91, 1.12 2.47 C0.84 3.02, 0.3 3.48, 0.23 3.36 C0.16 3.24, 0.69 1.86, 0.69 1.73 C0.68 1.61, 0.17 2.43, 0.21 2.6 C0.25 2.77, 1.04 3.12, 0.92 2.74 C0.8 2.36, -0.58 1.04, -0.52 0.34 C-0.45 -0.36, 1 -1.38, 1.32 -1.47 C1.63 -1.57, 1.55 -0.55, 1.37 -0.23" stroke="none" stroke-width="0" fill="#000"></path><path d="M-0.29 0.08 C-0.18 0.04, 1.54 0.63, 1.83 0.77 C2.11 0.91, 1.42 0.78, 1.42 0.9 C1.43 1.02, 2.02 1.25, 1.85 1.51 C1.69 1.78, 0.58 2.36, 0.42 2.47 C0.26 2.58, 0.98 2.04, 0.9 2.16 C0.82 2.27, 0.18 3.21, -0.04 3.17 C-0.27 3.13, -0.34 2.44, -0.45 1.89 C-0.56 1.35, -0.96 0.34, -0.69 -0.11 C-0.42 -0.56, 0.92 -0.79, 1.17 -0.83 C1.42 -0.87, 0.97 -0.44, 0.83 -0.35 M0.74 0.92 C0.56 0.48, 0.58 -1.12, 0.5 -0.97 C0.41 -0.82, 0.16 1.61, 0.22 1.82 C0.28 2.03, 0.7 0.36, 0.86 0.31 C1.01 0.26, 1.3 1.17, 1.16 1.53 C1.02 1.89, -0.07 2.22, -0.01 2.48 C0.06 2.73, 1.63 3.31, 1.53 3.06 C1.42 2.81, -0.33 1.26, -0.63 0.98 C-0.92 0.69, -0.3 1.63, -0.27 1.37 C-0.24 1.12, -0.54 -0.17, -0.44 -0.56 C-0.35 -0.94, 0.24 -1.1, 0.31 -0.94" stroke="#000000" stroke-width="1" fill="none"></path></g></svg>
